<svg width="96" height="99" viewBox="0 0 96 99" fill="none" xmlns="http://www.w3.org/2000/svg">
<g id="Group">
<g id="Group_2">
<path id="Vector" d="M53.452 68.3271V71.5361C53.452 74.0025 55.4518 76.0015 57.9174 76.0015H85.9782C90.4938 76.0015 94.155 79.662 94.155 84.1783C94.155 88.6938 90.4945 92.3551 85.9782 92.3551H11.2335" stroke="#272525" stroke-width="2.28019" stroke-miterlimit="10" stroke-linejoin="round"/>
<path id="Vector_2" d="M23.3573 38.2287C15.0414 29.9189 15.0414 16.4414 23.3573 8.13088C28.9863 2.50184 36.9928 0.682262 44.1503 2.68427" stroke="#272525" stroke-width="2.28019" stroke-miterlimit="10" stroke-linejoin="round"/>
<path id="Vector_3" d="M62.7538 2.69035C69.9113 0.683019 77.9178 2.49652 83.5529 8.13088C91.8627 16.4407 91.8627 29.9181 83.5529 38.2287" stroke="#272525" stroke-width="2.28019" stroke-miterlimit="10" stroke-linejoin="round"/>
<path id="Vector_4" d="M64.5087 4.7425L62.4223 5.37336C62.0256 5.49345 61.6068 5.26923 61.4867 4.87172L60.4971 1.59888C60.377 1.20213 60.6012 0.783342 60.9988 0.663252L63.0851 0.0323857C63.4819 -0.0877044 63.9014 0.136517 64.0208 0.534031L65.0104 3.80687C65.1304 4.20362 64.9055 4.62241 64.5087 4.7425Z" fill="#272525"/>
<path id="Vector_5" d="M42.3961 4.7425L44.4825 5.37336C44.8792 5.49345 45.298 5.26923 45.4181 4.87172L46.4077 1.59888C46.5278 1.20213 46.3036 0.783342 45.9061 0.663252L43.8197 0.0323857C43.4229 -0.0877044 43.0041 0.136517 42.8841 0.534031L41.8944 3.80687C41.7744 4.20362 41.9986 4.62241 42.3961 4.7425Z" fill="#272525"/>
<path id="Vector_6" d="M23.355 38.2302L53.452 68.3272L83.5498 38.2302" stroke="#FF7B54" stroke-width="3.80032" stroke-miterlimit="10" stroke-linecap="round" stroke-linejoin="round"/>
<g id="Group_3">
<path id="Vector_7" d="M39.5869 30.9434L45.0701 18.3401L50.0591 39.7169L53.2803 23.3215L56.8465 32.4658L61.2898 19.3791L63.931 30.9434H74.5263C75.6573 26.735 74.575 22.0553 71.2725 18.752C66.3518 13.8314 58.3742 13.8314 53.4536 18.752C48.5329 13.8314 40.5553 13.8314 35.6346 18.752C32.3314 22.0553 31.249 26.7342 32.3808 30.9434H39.5869Z" fill="#FF7B54"/>
<path id="Vector_8" d="M62.8995 32.2363L61.045 24.1181L56.93 36.2396L53.6914 27.9344L50.1677 45.8688L44.6975 22.4353L40.4336 32.2363H32.8018C33.4159 33.8157 34.3576 35.2971 35.633 36.5717L53.4519 54.3907L71.2709 36.5717C72.5463 35.2963 73.488 33.8157 74.1021 32.2363H62.8995Z" fill="#FF7B54"/>
</g>
<path id="Vector_9" d="M6.03924 97.5502C8.90796 97.5502 11.2335 95.2246 11.2335 92.3559C11.2335 89.4872 8.90796 87.1616 6.03924 87.1616C3.17052 87.1616 0.844971 89.4872 0.844971 92.3559C0.844971 95.2246 3.17052 97.5502 6.03924 97.5502Z" stroke="#272525" stroke-width="1.52013" stroke-miterlimit="10" stroke-linejoin="round"/>
<path id="Vector_10" d="M8.7071 92.3558C8.7071 93.8296 7.51227 95.0236 6.03927 95.0236C4.56626 95.0236 3.37146 93.8288 3.37146 92.3558C3.37146 90.8828 4.56626 89.688 6.03927 89.688C7.51227 89.688 8.7071 90.8821 8.7071 92.3558Z" fill="#FF7B54"/>
</g>
</g>
</svg>
