<svg width="24" height="25" viewBox="0 0 24 25" fill="none" xmlns="http://www.w3.org/2000/svg">
<g id="Nav-Links-Icons">
<mask id="mask0_55_217" style="mask-type:alpha" maskUnits="userSpaceOnUse" x="0" y="0" width="24" height="25">
<rect id="Bounding box" y="0.5" width="24" height="24" fill="#D9D9D9"/>
</mask>
<g mask="url(#mask0_55_217)">
<path id="agender" d="M12 21.5C10.3333 21.5 8.91667 20.9167 7.75 19.75C6.58333 18.5833 6 17.1667 6 15.5C6 14 6.47917 12.6958 7.4375 11.5875C8.39583 10.4792 9.58333 9.80833 11 9.575V4.5C11 4.21667 11.0958 3.97917 11.2875 3.7875C11.4792 3.59583 11.7167 3.5 12 3.5C12.2833 3.5 12.5208 3.59583 12.7125 3.7875C12.9042 3.97917 13 4.21667 13 4.5V9.575C14.4333 9.80833 15.625 10.4792 16.575 11.5875C17.525 12.6958 18 14 18 15.5C18 17.1667 17.4167 18.5833 16.25 19.75C15.0833 20.9167 13.6667 21.5 12 21.5ZM12 19.5C12.9333 19.5 13.7542 19.2167 14.4625 18.65C15.1708 18.0833 15.6417 17.3667 15.875 16.5H8.125C8.35833 17.3667 8.82917 18.0833 9.5375 18.65C10.2458 19.2167 11.0667 19.5 12 19.5ZM8.125 14.5H15.875C15.6417 13.6333 15.1708 12.9167 14.4625 12.35C13.7542 11.7833 12.9333 11.5 12 11.5C11.0667 11.5 10.2458 11.7833 9.5375 12.35C8.82917 12.9167 8.35833 13.6333 8.125 14.5Z" fill="#101010"/>
</g>
</g>
</svg>
