<svg width="20" height="22" viewBox="0 0 20 22" fill="none" xmlns="http://www.w3.org/2000/svg">
<g id="calendar_clock">
<path id="calendar_clock_2" d="M2 6.5H16V4.5H2V6.5ZM2 20.5C1.45 20.5 0.979167 20.3042 0.5875 19.9125C0.195833 19.5208 0 19.05 0 18.5V4.5C0 3.95 0.195833 3.47917 0.5875 3.0875C0.979167 2.69583 1.45 2.5 2 2.5H3V1.5C3 1.21667 3.09583 0.979167 3.2875 0.7875C3.47917 0.595833 3.71667 0.5 4 0.5C4.28333 0.5 4.52083 0.595833 4.7125 0.7875C4.90417 0.979167 5 1.21667 5 1.5V2.5H13V1.5C13 1.21667 13.0958 0.979167 13.2875 0.7875C13.4792 0.595833 13.7167 0.5 14 0.5C14.2833 0.5 14.5208 0.595833 14.7125 0.7875C14.9042 0.979167 15 1.21667 15 1.5V2.5H16C16.55 2.5 17.0208 2.69583 17.4125 3.0875C17.8042 3.47917 18 3.95 18 4.5V9.175C18 9.45833 17.9042 9.69583 17.7125 9.8875C17.5208 10.0792 17.2833 10.175 17 10.175C16.7167 10.175 16.4792 10.0792 16.2875 9.8875C16.0958 9.69583 16 9.45833 16 9.175V8.5H2V18.5H7.8C8.08333 18.5 8.32083 18.5958 8.5125 18.7875C8.70417 18.9792 8.8 19.2167 8.8 19.5C8.8 19.7833 8.70417 20.0208 8.5125 20.2125C8.32083 20.4042 8.08333 20.5 7.8 20.5H2ZM15 21.5C13.6167 21.5 12.4375 21.0125 11.4625 20.0375C10.4875 19.0625 10 17.8833 10 16.5C10 15.1167 10.4875 13.9375 11.4625 12.9625C12.4375 11.9875 13.6167 11.5 15 11.5C16.3833 11.5 17.5625 11.9875 18.5375 12.9625C19.5125 13.9375 20 15.1167 20 16.5C20 17.8833 19.5125 19.0625 18.5375 20.0375C17.5625 21.0125 16.3833 21.5 15 21.5ZM15.5 16.3V14C15.5 13.8667 15.45 13.75 15.35 13.65C15.25 13.55 15.1333 13.5 15 13.5C14.8667 13.5 14.75 13.55 14.65 13.65C14.55 13.75 14.5 13.8667 14.5 14V16.275C14.5 16.4083 14.525 16.5375 14.575 16.6625C14.625 16.7875 14.7 16.9 14.8 17L16.325 18.525C16.425 18.625 16.5417 18.675 16.675 18.675C16.8083 18.675 16.925 18.625 17.025 18.525C17.125 18.425 17.175 18.3083 17.175 18.175C17.175 18.0417 17.125 17.925 17.025 17.825L15.5 16.3Z" fill="#101010"/>
</g>
</svg>
