<svg width="24" height="25" viewBox="0 0 24 25" fill="none" xmlns="http://www.w3.org/2000/svg">
<g id="Nav-Links-Icons">
<mask id="mask0_55_208" style="mask-type:alpha" maskUnits="userSpaceOnUse" x="0" y="0" width="24" height="25">
<rect id="Bounding box" y="0.5" width="24" height="24" fill="#D9D9D9"/>
</mask>
<g mask="url(#mask0_55_208)">
<path id="prescriptions" d="M16.555 20.3636L17.59 19.3182L16.15 17.8636L15.115 18.9091C14.905 19.1212 14.8 19.3636 14.8 19.6364C14.8 19.9091 14.905 20.1515 15.115 20.3636C15.325 20.5758 15.565 20.6818 15.835 20.6818C16.105 20.6818 16.345 20.5758 16.555 20.3636ZM18.85 18.0455L19.885 17C20.095 16.7879 20.2 16.5455 20.2 16.2727C20.2 16 20.095 15.7576 19.885 15.5455C19.675 15.3333 19.435 15.2273 19.165 15.2273C18.895 15.2273 18.655 15.3333 18.445 15.5455L17.41 16.5909L18.85 18.0455ZM17.8375 21.6591C17.2825 22.2197 16.615 22.5 15.835 22.5C15.055 22.5 14.3875 22.2197 13.8325 21.6591C13.2775 21.0985 13 20.4242 13 19.6364C13 18.8485 13.2775 18.1742 13.8325 17.6136L17.1625 14.25C17.7175 13.6894 18.385 13.4091 19.165 13.4091C19.945 13.4091 20.6125 13.6894 21.1675 14.25C21.7225 14.8106 22 15.4848 22 16.2727C22 17.0606 21.7225 17.7348 21.1675 18.2955L17.8375 21.6591ZM5.8 20.6818C5.305 20.6818 4.88125 20.5038 4.52875 20.1477C4.17625 19.7917 4 19.3636 4 18.8636V6.13636C4 5.63636 4.17625 5.20833 4.52875 4.85227C4.88125 4.49621 5.305 4.31818 5.8 4.31818H9.58C9.775 3.77273 10.1012 3.33333 10.5587 3C11.0162 2.66667 11.53 2.5 12.1 2.5C12.67 2.5 13.1838 2.66667 13.6413 3C14.0988 3.33333 14.425 3.77273 14.62 4.31818H18.4C18.895 4.31818 19.3188 4.49621 19.6713 4.85227C20.0238 5.20833 20.2 5.63636 20.2 6.13636V11.7045C19.9 11.6288 19.6 11.5909 19.3 11.5909C19 11.5909 18.7 11.6136 18.4 11.6591V6.13636H5.8V18.8636H11.2675C11.2225 19.1667 11.2 19.4697 11.2 19.7727C11.2 20.0758 11.2375 20.3788 11.3125 20.6818H5.8ZM12.1 5.45455C12.295 5.45455 12.4563 5.39015 12.5837 5.26136C12.7113 5.13258 12.775 4.9697 12.775 4.77273C12.775 4.57576 12.7113 4.41288 12.5837 4.28409C12.4563 4.1553 12.295 4.09091 12.1 4.09091C11.905 4.09091 11.7438 4.1553 11.6163 4.28409C11.4888 4.41288 11.425 4.57576 11.425 4.77273C11.425 4.9697 11.4888 5.13258 11.6163 5.26136C11.7438 5.39015 11.905 5.45455 12.1 5.45455ZM7.6 9.77273V7.95455H16.6V9.77273H7.6ZM7.6 13.4091V11.5909H16.6V12.3636C16.48 12.4394 16.3637 12.5265 16.2513 12.625C16.1388 12.7235 16.0225 12.8333 15.9025 12.9545L15.4525 13.4091H7.6ZM7.6 17.0455V15.2273H13.6525L12.55 16.3409C12.43 16.4621 12.3212 16.5795 12.2237 16.6932C12.1262 16.8068 12.04 16.9242 11.965 17.0455H7.6Z" fill="#101010"/>
</g>
</g>
</svg>
