<svg width="24" height="25" viewBox="0 0 24 25" fill="none" xmlns="http://www.w3.org/2000/svg">
<g id="Nav-Links-Icons">
<mask id="mask0_55_223" style="mask-type:alpha" maskUnits="userSpaceOnUse" x="0" y="0" width="24" height="25">
<rect id="Bounding box" y="0.5" width="24" height="24" fill="#D9D9D9"/>
</mask>
<g mask="url(#mask0_55_223)">
<path id="edit_square" d="M5.58333 20.3531C5.14792 20.3531 4.77517 20.1981 4.4651 19.888C4.15503 19.578 4 19.2052 4 18.7698V7.68646C4 7.25104 4.15503 6.8783 4.4651 6.56823C4.77517 6.25816 5.14792 6.10313 5.58333 6.10313H10.749C11.0128 6.10313 11.2108 6.18559 11.3427 6.35052C11.4747 6.51545 11.5406 6.69688 11.5406 6.89479C11.5406 7.09271 11.4714 7.27413 11.3328 7.43906C11.1943 7.60399 10.9931 7.68646 10.7292 7.68646H5.58333V18.7698H16.6667V13.6042C16.6667 13.3403 16.7491 13.1424 16.9141 13.0104C17.079 12.8785 17.2604 12.8125 17.4583 12.8125C17.6562 12.8125 17.8377 12.8785 18.0026 13.0104C18.1675 13.1424 18.25 13.3403 18.25 13.6042V18.7698C18.25 19.2052 18.095 19.578 17.7849 19.888C17.4748 20.1981 17.1021 20.3531 16.6667 20.3531H5.58333ZM8.75 14.8115V12.8917C8.75 12.6806 8.78958 12.4793 8.86875 12.288C8.94792 12.0967 9.06007 11.9285 9.20521 11.7833L16.0135 4.975C16.1719 4.81667 16.35 4.69792 16.5479 4.61875C16.7458 4.53958 16.9437 4.5 17.1417 4.5C17.3528 4.5 17.554 4.53958 17.7453 4.61875C17.9366 4.69792 18.1115 4.81667 18.2698 4.975L19.3781 6.10313C19.5233 6.26146 19.6354 6.43628 19.7146 6.6276C19.7937 6.81892 19.8333 7.01354 19.8333 7.21146C19.8333 7.40937 19.797 7.60399 19.7245 7.79531C19.6519 7.98663 19.5365 8.16146 19.3781 8.31979L12.5698 15.1281C12.4247 15.2733 12.2564 15.3887 12.0651 15.4745C11.8738 15.5602 11.6726 15.6031 11.4615 15.6031H9.54167C9.31736 15.6031 9.12934 15.5273 8.9776 15.3755C8.82587 15.2238 8.75 15.0358 8.75 14.8115ZM10.3333 14.0198H11.4417L16.0333 9.42812L15.4792 8.87396L14.9052 8.31979L10.3333 12.8917V14.0198Z" fill="#101010"/>
</g>
</g>
</svg>
